<?xml version="1.0" encoding="iso-8859-1"?>
<!-- Uploaded to: SVG Repo, www.svgrepo.com, Generator: SVG Repo Mixer Tools -->
<!DOCTYPE svg PUBLIC "-//W3C//DTD SVG 1.1//EN" "http://www.w3.org/Graphics/SVG/1.1/DTD/svg11.dtd">
<svg fill="#000000" version="1.1" id="Capa_1" xmlns="http://www.w3.org/2000/svg" xmlns:xlink="http://www.w3.org/1999/xlink" 
	 width="800px" height="800px" viewBox="0 0 373.82 373.82"
	 xml:space="preserve">
<g>
	<g>
		<path d="M370.366,81.244L298.15,1.494C297.288,0.543,296.065,0,294.782,0H79.037c-1.283,0-2.507,0.543-3.368,1.494L3.454,81.244
			C2.739,82.086,1.91,83.49,1.91,85.23v66.842c0,1.793,1.454,3.246,3.245,3.246h363.51c1.792,0,3.245-1.453,3.245-3.246V85.23
			C371.91,83.289,370.993,81.935,370.366,81.244z"/>
		<path d="M349.444,177.291H24.376c-1.792,0-3.246,1.453-3.246,3.246v190.039c0,1.791,1.454,3.244,3.246,3.244h325.068
			c1.791,0,3.245-1.453,3.245-3.244V180.537C352.689,178.744,351.235,177.291,349.444,177.291z M232.811,227.719
			c0,7.683-6.227,13.91-13.908,13.91h-63.984c-7.683,0-13.909-6.229-13.909-13.91v-0.928c0-7.682,6.227-13.91,13.909-13.91h63.984
			c7.683,0,13.908,6.229,13.908,13.91V227.719z"/>
	</g>
</g>
</svg>